PathFileType	4	(X/Y/Z)	C:/Users/opensim2020/Desktop/walking_exp_matlab/subject06_walking17_straight_01.trc																																																																																																																																					
DataRate	CameraRate	NumFrames	NumMarkers	Units	OrigDataRate	OrigDataStartFrame	OrigNumFrames																																																																																																																																	
100	100	4	45	mm	100	1095	305																																																																																																																																	
Frame#	Time	LFHD			RFHD			LBHD			RBHD			C7			T10			CLAV			STRN			RBAK			LSHO			LUPA			LELB			LFRM			LWRA			LWRB			LFIN			RSHO			RUPA			RELB			RFRM			RWRA			RWRB			RFIN			LASI			RASI			LPSI			RPSI			LTHI			LKNE			LTIB			LANK			LHEE			LTOE			RTHI			RKNE			RTIB			RANK			RHEE			RTOE			*39			*40			*41			*42			*43			*44		
		X1	Y1	Z1	X2	Y2	Z2	X3	Y3	Z3	X4	Y4	Z4	X5	Y5	Z5	X6	Y6	Z6	X7	Y7	Z7	X8	Y8	Z8	X9	Y9	Z9	X10	Y10	Z10	X11	Y11	Z11	X12	Y12	Z12	X13	Y13	Z13	X14	Y14	Z14	X15	Y15	Z15	X16	Y16	Z16	X17	Y17	Z17	X18	Y18	Z18	X19	Y19	Z19	X20	Y20	Z20	X21	Y21	Z21	X22	Y22	Z22	X23	Y23	Z23	X24	Y24	Z24	X25	Y25	Z25	X26	Y26	Z26	X27	Y27	Z27	X28	Y28	Z28	X29	Y29	Z29	X30	Y30	Z30	X31	Y31	Z31	X32	Y32	Z32	X33	Y33	Z33	X34	Y34	Z34	X35	Y35	Z35	X36	Y36	Z36	X37	Y37	Z37	X38	Y38	Z38	X39	Y39	Z39	X40	Y40	Z40	X41	Y41	Z41	X42	Y42	Z42	X43	Y43	Z43	X44	Y44	Z44	X45	Y45	Z45
																																																																																																																																								
115	1.14	-200.54477	1675.3689	-1032.92651	-212.40999	1654.80737	-902.89063	-330.53464	1618.54761	-1050.60388	-341.46252	1602.58667	-922.70245	-335.20667	1460.04968	-999.77081	-378.55963	1132.62878	-994.59033	-226.57231	1379.99158	-997.94763	-191.2372	1203.63049	-1009.94641	-412.31796	1289.03076	-923.32043	-274.76883	1417.37878	-1159.50183	-262.47726	1214.8999	-1231.55408	-252.38481	1102.01099	-1242.50964	-174.92516	972.35187	-1244.9165	-83.97731	897.18597	-1177.90735	-126.27901	865.35193	-1225.04517	-55.96407	810.98315	-1207.46387	-272.88086	1410.63074	-837.26855	-312.24792	1211.32678	-752.92493	-303.2673	1089.71338	-740.93658	-290.09723	970.04865	-722.8656	-233.98947	828.99945	-751.55872	-288.57455	832.41486	-712.28235	-253.323	755.44843	-708.75031	-210.75436	967.30151	-1111.57068	-199.91029	973.97675	-891.38959	-367.35574	995.89124	-1076.89661	-352.80487	1003.34167	-908.70947	-257.03766	650.13647	-1167.42529	-237.63712	488.41666	-1148.94434	-402.94705	302.47516	-1147.22412	-507.14587	163.27042	-1115.0304	-545.48291	168.75267	-1064.78796	-413.10577	56.45293	-1128.25769	-254.20813	640.73315	-835.55493	-251.41533	514.32446	-857.92645	-284.54028	250.69603	-866.9433	-278.8006	65.46697	-920.71545	-315.27466	41.81531	-967.09436	-121.72818	32.17024	-922.33691	-306.7471	1706.82751	-981.34875	NaN	NaN	NaN	NaN	NaN	NaN	NaN	NaN	NaN	NaN	NaN	NaN	NaN	NaN	NaN
116	1.15	-195.4091	1675.6012	-1032.10889	-207.13503	1655.17432	-902.04877	-325.56314	1619.06982	-1049.47668	-336.39557	1603.25549	-921.5639	-330.44894	1460.51062	-998.44049	-373.88675	1133.15918	-993.09918	-221.75331	1380.41418	-996.97406	-186.51382	1203.99573	-1008.8606	-407.26883	1289.50696	-921.59387	-270.70654	1417.62976	-1158.28821	-259.03174	1215.32739	-1230.66382	-249.31001	1102.55774	-1241.7915	-172.59286	972.34119	-1245.32642	-81.53348	896.41577	-1179.10266	-124.38626	864.97705	-1225.97034	-54.42976	810.00293	-1208.85864	-267.61829	1411.21326	-836.12628	-306.20969	1211.8761	-751.59216	-296.95721	1090.26355	-739.60358	-283.39902	970.69843	-721.54486	-226.89349	829.7583	-750.42352	-281.27396	832.81476	-711.10858	-245.91263	756.16626	-707.50586	-205.56102	967.94769	-1109.98608	-195.29887	974.07922	-889.9386	-362.63797	996.53406	-1075.57996	-348.05585	1003.64484	-907.50922	-250.31921	651.05054	-1166.42932	-229.73935	489.52399	-1147.41553	-392.07602	300.88766	-1145.86304	-493.36377	159.47693	-1113.75293	-531.54578	163.56497	-1063.36279	-396.0394	56.04103	-1128.71069	-251.27571	640.67786	-835.00452	-249.44749	514.23016	-857.4104	-284.58435	251.0463	-866.57404	-279.01987	65.49777	-920.64923	-315.44937	41.79564	-967.12305	-121.90865	32.30049	-922.10498	-301.49445	1707.40198	-980.32678	NaN	NaN	NaN	NaN	NaN	NaN	NaN	NaN	NaN	NaN	NaN	NaN	NaN	NaN	NaN
117	1.16	-190.37761	1675.90552	-1031.34131	-201.94234	1655.59485	-901.28595	-320.73004	1619.51025	-1048.48767	-331.21658	1603.81128	-920.49927	-325.54703	1460.81482	-997.17316	-369.0755	1133.44922	-991.55566	-216.93161	1380.72791	-996.01025	-181.81972	1204.33679	-1007.70581	-402.21622	1289.97119	-919.92029	-266.58319	1417.9812	-1157.15991	-255.58795	1215.72131	-1229.81287	-246.2117	1102.89221	-1241.15955	-170.1474	972.31403	-1245.52136	-79.40734	895.37128	-1179.96582	-122.72748	864.4707	-1227.0752	-53.07968	808.87665	-1210.44946	-262.38684	1411.77893	-835.04437	-300.41681	1212.40613	-750.29675	-290.72824	1090.80237	-738.31305	-276.72021	971.27771	-720.32001	-219.77454	830.53253	-749.27893	-274.46054	833.48834	-709.63245	-238.45978	756.84528	-706.3562	-200.85138	968.39661	-1108.52075	-190.81999	974.06323	-888.4798	-357.89673	997.09521	-1074.39624	-343.46359	1003.93915	-906.29919	-243.65083	651.94568	-1165.4436	-221.87894	490.63815	-1145.92224	-380.84982	298.98163	-1144.50378	-479.01175	155.2034	-1112.55725	-517.08167	157.82762	-1062.03882	-378.96106	54.93079	-1128.87524	-248.47153	640.6225	-834.52618	-247.61664	514.23474	-857.008	-283.99808	250.93529	-866.5871	-279.22827	65.55907	-920.64685	-315.46582	41.74713	-967.19873	-121.94895	32.12225	-922.29279	-296.3255	1707.84998	-979.37738	NaN	NaN	NaN	NaN	NaN	NaN	NaN	NaN	NaN	NaN	NaN	NaN	NaN	NaN	NaN
118	1.17	-185.44156	1676.13489	-1030.65991	-196.70932	1655.91724	-900.59949	-315.85477	1619.84741	-1047.50293	-326.14542	1604.25427	-919.46564	-320.76495	1461.16565	-995.92096	-364.38904	1133.79358	-990.00031	-212.17363	1381.03638	-994.99084	-177.10953	1204.60168	-1006.638	-397.25821	1290.40295	-918.28314	-262.36713	1418.29614	-1156.07202	-252.22371	1216.00232	-1229.02625	-243.14693	1103.25452	-1240.75366	-168.09567	972.013	-1246.29114	-77.56533	894.06439	-1181.04517	-121.17401	863.83557	-1228.42444	-51.98777	807.5813	-1212.21143	-257.14902	1412.28442	-833.97327	-294.37198	1212.8656	-748.9118	-284.49289	1091.32422	-737.03986	-270.02029	971.81268	-719.05402	-212.68019	831.29065	-748.26245	-266.86548	833.97748	-708.78033	-231.00372	757.50946	-705.29877	-196.4454	968.9165	-1107.10071	-186.38411	974.04016	-887.14142	-353.19479	997.64709	-1073.23987	-339.06308	1004.24249	-905.06274	-236.9202	652.77185	-1164.54749	-214.25285	491.66556	-1144.48193	-369.56793	296.81525	-1143.32117	-464.08081	150.55623	-1111.40649	-502.08075	151.7682	-1060.79968	-360.22092	54.16368	-1129.21741	-246.07825	640.59625	-833.95337	-245.67577	514.20209	-856.60498	-283.63144	251.03656	-866.49384	-279.41895	65.6244	-920.67181	-315.52322	41.78386	-967.27411	-122.07444	32.28181	-921.99146	-291.26303	1708.24792	-978.50458	NaN	NaN	NaN	NaN	NaN	NaN	NaN	NaN	NaN	NaN	NaN	NaN	NaN	NaN	NaN
